<svg width="194" height="36" viewBox="0 0 194 36" fill="none" xmlns="http://www.w3.org/2000/svg">
<path d="M22.4201 24.6096H25.6975C25.7227 26.2483 26.5821 27.0023 27.9596 27.0023C29.4171 27.0023 30.1164 26.143 30.1164 24.9761C30.1164 21.6735 22.7824 21.4123 22.7824 15.9276C22.7824 13.2231 24.7075 11.1969 27.9301 11.1969C31.1527 11.1969 33.1579 13.1979 33.1831 16.4499H29.9058C29.8805 14.9924 29.1517 14.2931 27.9301 14.2931C26.7085 14.2931 26.0303 14.9671 26.0303 16.0076C26.0303 19.1796 33.4401 19.285 33.4401 25.0056C33.4401 27.8659 31.4391 30.128 27.9301 30.128C24.4211 30.128 22.4454 28.1271 22.4159 24.618L22.4201 24.6096Z" fill="black"/>
<path d="M51.5961 21.2564V29.7573H48.5547V21.2817C48.5547 19.306 48.007 18.6025 47.0213 18.6025C45.9302 18.6025 45.2015 19.4872 45.2015 21.1511V29.7573H42.16V21.2817C42.16 19.306 41.6124 18.6025 40.6014 18.6025C39.5356 18.6025 38.8069 19.4872 38.8069 21.1511V29.7573H35.7654V16.0034H37.8211L38.0823 17.4609C38.7563 16.3151 39.8768 15.6664 41.3302 15.6664C42.7077 15.6664 43.7987 16.2899 44.4517 17.5115C45.1551 16.3151 46.2715 15.6664 47.7543 15.6664C50.147 15.6664 51.6003 17.5368 51.6003 21.2564H51.5961Z" fill="black"/>
<path d="M63.7914 20.8394V29.7573H61.3228L61.1417 28.4556C60.6193 29.3908 59.6589 30.1196 58.1003 30.1196C55.5769 30.1196 53.9678 28.3503 53.9678 25.8312C53.9678 22.9204 56.074 21.5134 59.0902 21.5134H60.7036V20.8352C60.7036 19.4324 60.2866 18.6236 59.145 18.6236C58.2856 18.6236 57.561 19.0659 57.4305 20.1317H54.3637C54.4943 17.3514 56.2889 15.658 59.1997 15.658C62.3212 15.658 63.7998 17.4778 63.7998 20.831L63.7914 20.8394ZM60.6952 24.1167H59.1365C57.8349 24.1167 57.0808 24.7149 57.0808 25.8312C57.0808 26.7664 57.6537 27.4446 58.8206 27.4446C59.9875 27.4446 60.691 26.7159 60.691 25.5448V24.1167H60.6952Z" fill="black"/>
<path d="M74.2932 15.9529V18.9185C73.8003 18.7121 73.2527 18.5815 72.604 18.5815C71.0201 18.5815 70.0301 19.4661 70.0301 21.2059V29.7615H66.9634V16.0076H69.0444L69.3056 17.5157C70.0343 16.3446 71.2307 15.6959 72.8146 15.6959C73.4128 15.6959 73.9057 15.7759 74.2974 15.9571L74.2932 15.9529Z" fill="black"/>
<path d="M82.6677 27.0529V29.9384H81.6272C78.7669 29.9384 77.0271 28.0934 77.0271 25.1277V18.7837H75.1821V16.0034H77.0271V12.7261H80.0686V16.0034H82.4613V18.7837H80.0686V25.153C80.0686 26.4547 80.6162 27.0529 81.8126 27.0529H82.6719H82.6677Z" fill="black"/>
<path d="M101.839 12.288V30.4903H98.6922V24.795C98.7722 22.6634 98.8481 20.5824 98.9534 18.5267L98.8228 18.4762C98.3046 19.9842 97.7065 21.6229 97.1336 23.2616L95.9119 26.4842H92.7399L91.5182 23.2616C90.9453 21.6229 90.3724 19.9842 89.829 18.4762L89.6984 18.5267C89.8037 20.5824 89.8796 22.6592 89.9596 24.795V30.4903H86.8381V12.288H90.0607L93.0263 19.4113C93.4181 20.3718 94.0415 22.0357 94.2732 22.7898H94.3786C94.6145 22.0357 95.2632 20.3718 95.6507 19.4113L98.5869 12.288H101.839Z" fill="#B2D234"/>
<path d="M114.944 26.1472C114.683 29.0833 112.838 30.802 109.822 30.802C106.806 30.802 105.011 28.8263 105.011 25.4984V21.6229C105.011 18.3203 106.831 16.3952 109.847 16.3952C112.863 16.3952 114.763 18.3203 114.763 21.6229V24.6896H108.082V25.4942C108.082 27.1329 108.731 27.8617 109.876 27.8617C111.149 27.8617 111.616 27.3435 111.852 26.1472H114.944ZM108.078 21.5976V22.5075H111.717V21.5976C111.717 19.9842 111.069 19.2555 109.872 19.2555C108.676 19.2555 108.078 19.9842 108.078 21.5976Z" fill="#B2D234"/>
<path d="M119.78 26.1724C119.805 27.1076 120.328 28.0428 121.781 28.0428C122.897 28.0428 123.55 27.4952 123.55 26.6653C123.55 24.222 116.945 25.0014 116.945 20.3212C116.945 17.878 118.74 16.3952 121.545 16.3952C124.667 16.3952 126.095 18.3203 126.251 20.8941H123.285C123.234 19.8031 122.712 19.1249 121.541 19.1249C120.581 19.1249 119.982 19.6178 119.982 20.3465C119.982 22.5581 126.613 21.6987 126.613 26.6653C126.613 29.1633 124.844 30.8526 121.853 30.8526C118.5 30.8526 116.756 28.6705 116.705 26.1724H119.78Z" fill="#B2D234"/>
<path d="M131.221 26.1724C131.247 27.1076 131.769 28.0428 133.222 28.0428C134.339 28.0428 134.992 27.4952 134.992 26.6653C134.992 24.222 128.386 25.0014 128.386 20.3212C128.386 17.878 130.181 16.3952 132.986 16.3952C136.108 16.3952 137.536 18.3203 137.692 20.8941H134.726C134.676 19.8031 134.153 19.1249 132.982 19.1249C132.022 19.1249 131.424 19.6178 131.424 20.3465C131.424 22.5581 138.054 21.6987 138.054 26.6653C138.054 29.1633 136.285 30.8526 133.294 30.8526C129.941 30.8526 128.197 28.6705 128.146 26.1724H131.221Z" fill="#B2D234"/>
<path d="M149.58 21.5724V30.4903H147.111L146.93 29.1886C146.408 30.1238 145.447 30.8526 143.888 30.8526C141.365 30.8526 139.756 29.0833 139.756 26.5642C139.756 23.6534 141.862 22.2464 144.878 22.2464H146.492V21.5682C146.492 20.1654 146.075 19.3566 144.933 19.3566C144.074 19.3566 143.349 19.7989 143.219 20.8647H140.152C140.283 18.0844 142.077 16.391 144.988 16.391C148.109 16.391 149.588 18.2108 149.588 21.5639L149.58 21.5724ZM146.483 24.8455H144.925C143.623 24.8455 142.869 25.4437 142.869 26.56C142.869 27.4952 143.442 28.1734 144.609 28.1734C145.776 28.1734 146.479 27.4446 146.479 26.2736V24.8455H146.483Z" fill="#B2D234"/>
<path d="M162.268 16.7364V31.0632C162.268 33.7424 160.498 35.5369 157.537 35.5369C154.576 35.5369 152.907 33.7676 152.832 31.0927H155.848C155.953 32.0784 156.497 32.6766 157.537 32.6766C158.578 32.6766 159.15 32.0531 159.15 31.0632V29.1676C158.502 29.6099 157.722 29.8711 156.838 29.8711C154.289 29.8711 152.444 27.7901 152.444 24.7739V21.6019C152.444 18.5056 154.289 16.4036 156.838 16.4036C158.059 16.4036 159.125 16.8459 159.904 17.6758L160.111 16.7406H162.268V16.7364ZM159.146 21.5471C159.146 20.0896 158.443 19.365 157.326 19.365C156.21 19.365 155.532 20.0938 155.532 21.6019V24.7739C155.532 26.2314 156.155 26.956 157.326 26.956C158.497 26.956 159.146 26.2272 159.146 24.7739V21.5471Z" fill="#B2D234"/>
<path d="M165.233 12.8103C165.233 11.7698 165.962 11.0158 167.003 11.0158C168.043 11.0158 168.797 11.7698 168.797 12.8103C168.797 13.7708 168.018 14.6048 167.003 14.6048C165.987 14.6048 165.233 13.8255 165.233 12.8103ZM165.465 16.7364H168.532V30.4903H165.465V16.7364Z" fill="#B2D234"/>
<path d="M181.35 21.9599V30.4903H178.284V22.04C178.284 20.0896 177.736 19.3355 176.67 19.3355C175.525 19.3355 174.8 20.2201 174.8 21.8841V30.4903H171.733V16.7364H173.814L174.075 18.2192C174.779 17.0481 175.895 16.3994 177.403 16.3994C179.872 16.3994 181.355 18.2192 181.355 21.9641L181.35 21.9599Z" fill="#B2D234"/>
<path d="M193.938 16.7364V31.0632C193.938 33.7424 192.168 35.5369 189.207 35.5369C186.245 35.5369 184.577 33.7676 184.501 31.0927H187.518C187.623 32.0784 188.166 32.6766 189.207 32.6766C190.247 32.6766 190.82 32.0531 190.82 31.0632V29.1676C190.171 29.6099 189.392 29.8711 188.508 29.8711C185.959 29.8711 184.114 27.7901 184.114 24.7739V21.6019C184.114 18.5056 185.959 16.4036 188.508 16.4036C189.729 16.4036 190.795 16.8459 191.574 17.6758L191.781 16.7406H193.938V16.7364ZM190.816 21.5471C190.816 20.0896 190.113 19.365 188.996 19.365C187.88 19.365 187.202 20.0938 187.202 21.6019V24.7739C187.202 26.2314 187.825 26.956 188.996 26.956C190.167 26.956 190.816 26.2272 190.816 24.7739V21.5471Z" fill="#B2D234"/>
<path d="M20.3096 30.1238V19.1881C20.3096 11.3907 14.4458 11.298 14.4458 11.298H5.99547C-0.205377 11.6224 0.0642255 18.7458 0.0642255 18.7458C0.0515879 27.1961 6.60628 26.9813 6.60628 26.9813H15.0777C15.0777 26.9813 20.3602 26.956 20.3054 30.1196L20.3096 30.1238Z" fill="#B2D234"/>
<path d="M6.73687 19.959C7.36038 19.959 7.86583 19.395 7.86583 18.6994C7.86583 18.0038 7.36038 17.4399 6.73687 17.4399C6.11337 17.4399 5.60792 18.0038 5.60792 18.6994C5.60792 19.395 6.11337 19.959 6.73687 19.959Z" fill="white"/>
<path d="M10.2838 19.959C10.9073 19.959 11.4128 19.395 11.4128 18.6994C11.4128 18.0038 10.9073 17.4399 10.2838 17.4399C9.66032 17.4399 9.15486 18.0038 9.15486 18.6994C9.15486 19.395 9.66032 19.959 10.2838 19.959Z" fill="white"/>
<path d="M13.578 19.959C14.2015 19.959 14.707 19.395 14.707 18.6994C14.707 18.0038 14.2015 17.4399 13.578 17.4399C12.9545 17.4399 12.4491 18.0038 12.4491 18.6994C12.4491 19.395 12.9545 19.959 13.578 19.959Z" fill="white"/>
<path d="M21.7798 11.6182C22.8709 9.53717 25.0445 8.11755 27.5552 8.11755C29.2908 8.11755 30.862 8.79998 32.0289 9.90366C32.1637 9.1791 32.2437 8.36609 32.2437 7.44775C32.2437 7.44775 32.5176 0.324365 26.3125 0H17.8622C17.8622 0 11.9983 0.0926754 11.9983 7.89007V8.42085H14.728C17.542 8.42085 20.0569 9.65933 21.7798 11.6182Z" fill="#B2D234"/>
</svg>
